<svg xmlns="http://www.w3.org/2000/svg" id="Capa_1" height="512" viewBox="0 0 512 512" width="512"><g><path d="m475.419 255.986c0-23.924 8.933-44.983 23.345-71.208 1.33-2.42 1.601-5.283.746-7.909s-2.757-4.783-5.256-5.958c-22.198-10.434-45.174-22.415-60.749-43.853-14.091-19.397-19.228-41.675-22.947-71.334-.344-2.742-1.807-5.219-4.041-6.844-2.236-1.625-5.039-2.253-7.758-1.734-29.381 5.613-52.171 7.605-74.955.199-22.792-7.408-40.046-22.401-60.498-44.189-1.891-2.014-4.53-3.156-7.292-3.156s-5.401 1.142-7.291 3.156c-20.445 21.78-37.701 36.77-60.527 44.189-22.79 7.409-45.565 5.417-74.925-.199-2.711-.516-5.519.107-7.754 1.73s-3.699 4.097-4.045 6.837c-3.754 29.687-8.907 51.977-22.977 71.344-15.576 21.439-38.551 33.42-60.749 43.853-2.5 1.175-4.402 3.331-5.256 5.958s-.584 5.489.746 7.909c14.412 26.224 23.345 47.283 23.345 71.208 0 26.512-11.533 49.714-23.345 71.208-1.33 2.42-1.6 5.283-.746 7.909s2.756 4.783 5.256 5.958c27.064 12.72 46.667 24.498 60.749 43.881 14.068 19.363 19.221 41.644 22.977 71.317.347 2.74 1.811 5.214 4.046 6.836 2.234 1.622 5.039 2.249 7.753 1.729 29.359-5.614 52.134-7.607 74.925-.198 22.794 7.409 40.059 22.412 60.527 44.218 1.89 2.014 4.529 3.156 7.291 3.156s5.401-1.142 7.292-3.156c20.476-21.814 37.738-36.82 60.498-44.218 22.783-7.406 45.572-5.415 74.955.199 2.719.519 5.522-.109 7.757-1.733 2.235-1.625 3.698-4.102 4.042-6.843 3.722-29.645 8.858-51.913 22.948-71.307 14.081-19.383 33.684-31.161 60.748-43.881 2.499-1.175 4.401-3.331 5.256-5.958.854-2.626.584-5.489-.746-7.909-11.813-21.493-23.345-44.695-23.345-71.207zm-58.095 117.201c-15.948 21.952-21.817 47.07-25.199 70.108-22.984-3.897-48.711-6.072-74.503 2.311-25.772 8.377-45.303 25.26-61.608 41.924-16.301-16.658-35.833-33.537-61.635-41.924-12.973-4.217-25.921-5.763-38.512-5.763-12.451 0-24.553 1.513-35.974 3.452-3.405-23.057-9.291-48.185-25.218-70.108-15.944-21.946-38.034-35.302-58.915-45.652 10.804-20.662 20.821-44.459 20.821-71.549s-10.017-50.887-20.821-71.549c20.896-10.356 42.995-23.709 58.915-45.623 15.931-21.928 21.815-47.069 25.219-70.136 22.967 3.897 48.682 6.075 74.484-2.312 25.83-8.396 45.351-25.257 61.635-41.896 16.289 16.646 35.808 33.511 61.607 41.896 25.794 8.384 51.52 6.208 74.503 2.312 3.38 23.049 9.248 48.177 25.2 70.136 15.92 21.913 38.019 35.267 58.916 45.624-10.805 20.662-20.821 44.459-20.821 71.549s10.017 50.887 20.821 71.549c-20.881 10.349-42.972 23.705-58.915 45.651z"></path><path d="m256.014 85.775c-44.43 0-86.478 17.012-118.397 47.902-31.842 30.814-50.222 72.125-51.755 116.322-.191 5.52 4.128 10.149 9.647 10.341 5.5.184 10.149-4.128 10.341-9.647 2.817-81.262 68.777-144.917 150.164-144.917 82.829 0 150.215 67.384 150.215 150.211 0 79.466-62.032 144.706-140.216 149.87v-46.624c27.766-.839 50.098-23.655 50.098-51.601v-31.654c8.872-.149 16.047-7.4 16.047-16.307v-38.21c0-8.984-7.322-16.293-16.322-16.293h-15.091v-62.735c0-5.523-4.478-10-10-10s-10 4.477-10 10v62.735h-49.49v-62.735c0-5.523-4.477-10-10-10s-10 4.477-10 10v62.735h-15.091c-8.985 0-16.294 7.309-16.294 16.293v38.21c0 8.906 7.162 16.158 16.019 16.307v31.654c0 27.955 22.347 50.777 50.125 51.601v46.626c-49.434-3.328-94.714-31.154-119.858-74.294-2.78-4.772-8.904-6.384-13.675-3.604-4.771 2.781-6.385 8.904-3.604 13.675 14.725 25.263 35.842 46.441 61.068 61.245 25.993 15.253 55.754 23.315 86.069 23.315 93.857 0 170.215-76.356 170.215-170.211s-76.358-170.21-170.215-170.21zm-56.144 139.392h112.289v30.824h-112.289zm16.019 82.465v-31.64h80.223v31.64c0 17.447-14.21 31.641-31.677 31.641h-16.869c-17.467-.001-31.677-14.194-31.677-31.641z"></path><path d="m99.882 282.155c-5.523 0-10 4.477-10 10v.057c0 5.523 4.477 9.972 10 9.972s10-4.505 10-10.028-4.477-10.001-10-10.001z"></path></g></svg>