<svg xmlns="http://www.w3.org/2000/svg" xmlns:xlink="http://www.w3.org/1999/xlink" id="Capa_1" x="0px" y="0px" viewBox="0 0 512 512" style="enable-background:new 0 0 512 512;" xml:space="preserve"> <g> <g> <path d="M196,59.875c-5.52,0-10,4.48-10,10s4.48,10,10,10s10-4.48,10-10S201.52,59.875,196,59.875z"></path> </g> </g> <g> <g> <path d="M136,19.875c-5.52,0-10,4.48-10,10s4.48,10,10,10s10-4.48,10-10S141.52,19.875,136,19.875z"></path> </g> </g> <g> <g> <path d="M502,79.875h-29.175c-2.771-6.911-6.407-13.277-10.873-19.037l13.028-22.562c1.326-2.297,1.686-5.027,0.999-7.589 s-2.362-4.746-4.659-6.072l-34.641-20c-4.785-2.761-10.898-1.122-13.66,3.659l-12.977,22.473c-7.623-1.17-14.463-1.17-22.086,0 L374.981,8.274c-2.762-4.782-8.879-6.421-13.66-3.659l-34.641,20c-2.297,1.326-3.973,3.511-4.659,6.072 c-0.686,2.561-0.327,5.292,0.999,7.589l13.028,22.562c-4.466,5.76-8.102,12.126-10.873,19.037H296c-5.522,0-10,4.478-10,10v40 c0,5.522,4.478,10,10,10h29.175c2.771,6.911,6.407,13.277,10.873,19.037l-13.028,22.562c-1.326,2.297-1.686,5.027-0.999,7.589 s2.362,4.746,4.659,6.072l34.641,20c4.785,2.762,10.898,1.122,13.66-3.659l12.977-22.473c7.623,1.17,14.463,1.17,22.086,0 l12.977,22.473c1.853,3.208,5.214,5.001,8.67,5.001c1.696,0,3.416-0.433,4.99-1.342l34.641-20 c2.297-1.326,3.973-3.511,4.659-6.072c0.686-2.561,0.327-5.292-0.999-7.589l-13.028-22.562c4.466-5.76,8.102-12.126,10.873-19.037 H502c5.522,0,10-4.478,10-10v-40C512,84.353,507.523,79.875,502,79.875z M492,119.875h-26.26c-4.412,0-8.303,2.892-9.575,7.116 c-2.773,9.206-7.375,17.261-13.678,23.94c-3.033,3.214-3.597,8.037-1.388,11.864l11.56,20.019l-17.32,10l-11.549-20 c-1.814-3.142-5.146-5-8.658-5c-0.77,0-1.548,0.089-2.32,0.273c-5.046,1.202-9.563,1.787-13.812,1.787s-8.766-0.585-13.812-1.787 c-4.298-1.025-8.767,0.897-10.979,4.727l-11.549,20l-17.32-10l11.56-20.019c2.209-3.827,1.646-8.65-1.388-11.864 c-6.303-6.68-10.904-14.734-13.678-23.94c-1.272-4.225-5.163-7.116-9.575-7.116H306v-20h26.26c4.412,0,8.303-2.892,9.575-7.116 c2.773-9.206,7.375-17.261,13.678-23.94c3.033-3.214,3.597-8.037,1.388-11.864l-11.56-20.019l17.32-10l11.549,20 c2.212,3.83,6.68,5.753,10.979,4.727c5.046-1.202,9.563-1.787,13.812-1.787s8.766,0.585,13.812,1.787 c4.299,1.027,8.767-0.896,10.979-4.727l11.549-20l17.32,10L441.1,56.954c-2.209,3.827-1.646,8.65,1.388,11.864 c6.303,6.68,10.904,14.734,13.678,23.94c1.272,4.225,5.163,7.116,9.575,7.116H492V119.875z"></path> </g> </g> <g> <g> <path d="M399,69.755c-22.056,0-40,17.944-40,40c0,22.056,17.944,40,40,40c22.056,0,40-17.944,40-40 C439,87.699,421.056,69.755,399,69.755z M399,129.755c-11.028,0-20-8.972-20-20s8.972-20,20-20s20,8.972,20,20 S410.028,129.755,399,129.755z"></path> </g> </g> <g> <g> <path d="M506.769,241.085c-3.224-1.748-7.146-1.593-10.221,0.407L389,311.441v-61.687c0-3.668-2.008-7.041-5.231-8.79 c-3.225-1.748-7.146-1.592-10.221,0.407L266,311.321v-61.566c0-3.688-2.03-7.076-5.281-8.816 c-3.253-1.742-7.198-1.549-10.266,0.496l-100.045,66.699l-14.44-179.062c-0.418-5.195-4.756-9.197-9.968-9.197H40 c-5.211,0-9.549,4.002-9.968,9.197l-6.45,79.959l-23.55,292.04c-0.224,2.783,0.725,5.532,2.618,7.585 c1.893,2.052,4.558,3.219,7.35,3.219h146h346c5.522,0,10-4.478,10-10v-252C512,246.207,509.992,242.834,506.769,241.085z M49.227,139.875h67.546l1.612,20H47.614L49.227,139.875z M46.001,179.875h73.997l1.612,20H44.388L46.001,179.875z M42.775,219.875h80.448l1.612,20H41.162L42.775,219.875z M20.839,491.875l1.869-23.172c1.825,1.948,4.413,3.172,7.292,3.172h86 c5.523,0,10-4.478,10-10c0-5.522-4.477-10-10-10H30c-2.301,0-4.414,0.785-6.104,2.091l15.653-194.091h86.899l18.713,232H20.839z M492,491.875H165.226l-12.978-160.93L246,268.44v61.314c0,3.668,2.008,7.041,5.231,8.79c3.222,1.747,7.145,1.594,10.221-0.407 L369,268.189v61.687c0,3.668,2.008,7.041,5.231,8.79c3.223,1.747,7.145,1.594,10.221-0.407L492,268.309V491.875z"></path> </g> </g> <g> <g> <path d="M256,362.875h-60c-5.523,0-10,4.478-10,10v43c0,5.522,4.477,10,10,10h60c5.522,0,10-4.478,10-10v-43 C266,367.353,261.523,362.875,256,362.875z M246,405.875h-40v-23h40V405.875z"></path> </g> </g> <g> <g> <path d="M359,362.875h-63c-5.522,0-10,4.478-10,10v43c0,5.522,4.478,10,10,10h63c5.522,0,10-4.478,10-10v-43 C369,367.353,364.523,362.875,359,362.875z M349,405.875h-43v-23h43V405.875z"></path> </g> </g> <g> <g> <path d="M459,362.875h-60c-5.522,0-10,4.478-10,10v43c0,5.522,4.478,10,10,10h60c5.522,0,10-4.478,10-10v-43 C469,367.353,464.522,362.875,459,362.875z M449,405.875h-40v-23h40V405.875z"></path> </g> </g> <g> <g> <path d="M236.003,0.125c-0.04,0-0.081,0-0.121,0.001c-5.522,0.065-9.946,4.595-9.881,10.117c0.029,2.452-0.936,4.795-2.718,6.599 c-1.905,1.928-4.56,3.033-7.283,3.033h-40c-5.523,0-10,4.478-10,10s4.477,10,10,10h40c8.032,0,15.872-3.271,21.508-8.976 c5.569-5.635,8.583-13.055,8.491-20.893C245.935,4.524,241.471,0.125,236.003,0.125z"></path> </g> </g> <g> <g> <path d="M96,19.875h-2c-27.57,0-50,22.43-50,50c0,5.522,4.477,10,10,10s10-4.478,10-10c0-16.542,13.458-30,30-30h2 c5.523,0,10-4.478,10-10S101.523,19.875,96,19.875z"></path> </g> </g> <g> <g> <path d="M255.882,40.005c-5.522,0.065-9.946,4.595-9.881,10.117c0.029,2.454-0.936,4.798-2.716,6.6 c-1.904,1.927-4.56,3.032-7.285,3.032c-5.523,0.001-10,4.478-10,10.001c0,5.522,4.477,10,10,10c8.034,0,15.875-3.271,21.511-8.974 c5.566-5.634,8.581-13.054,8.488-20.895C265.935,44.364,261.417,39.907,255.882,40.005z"></path> </g> </g> <g> <g> <path d="M156,59.875h-32c-16.542,0-30,13.458-30,30c0,5.522,4.477,10,10,10s10-4.478,10-10c0-5.514,4.486-10,10-10h32 c5.523,0,10-4.478,10-10C166,64.353,161.523,59.875,156,59.875z"></path> </g> </g> <g> </g> <g> </g> <g> </g> <g> </g> <g> </g> <g> </g> <g> </g> <g> </g> <g> </g> <g> </g> <g> </g> <g> </g> <g> </g> <g> </g> <g> </g> </svg>