<svg xmlns="http://www.w3.org/2000/svg" id="Capa_1" data-name="Capa 1" viewBox="0 0 459 512"><defs><style>.cls-1{fill:#f9b333;}</style></defs><path class="cls-1" d="M256,43.92a10,10,0,0,0,10-10V10a10,10,0,0,0-20,0V33.92A10,10,0,0,0,256,43.92Z" transform="translate(-26.5 0)"></path><path class="cls-1" d="M361.37,149.26a10,10,0,0,0,10,10h24a10,10,0,0,0,0-20h-24A10,10,0,0,0,361.37,149.26Z" transform="translate(-26.5 0)"></path><path class="cls-1" d="M116.67,159.26H140.6a10,10,0,1,0,0-20H116.67a10,10,0,0,0,0,20Z" transform="translate(-26.5 0)"></path><path class="cls-1" d="M337.57,77.71a9.93,9.93,0,0,0,7.07-2.93l16.93-16.92a10,10,0,0,0-14.14-14.14L330.5,60.64a10,10,0,0,0,7.07,17.07Z" transform="translate(-26.5 0)"></path><path class="cls-1" d="M167.33,74.78a10,10,0,1,0,14.14-14.14L164.54,43.72A10,10,0,1,0,150.4,57.86Z" transform="translate(-26.5 0)"></path><path d="M184.84,183.88H65.45a10,10,0,0,0-9.84,8.23L36.37,299.19c0,.14,0,.27-.07.41l-9.64,53.66A10,10,0,0,0,36.5,365h16v11.31a31.33,31.33,0,0,0,31.3,31.29h29.32a10,10,0,0,0,0-20H83.8a11.31,11.31,0,0,1-11.3-11.29V365h367v11.31a11.31,11.31,0,0,1-11.3,11.29H203a10,10,0,0,0,0,20h19.4v40.86H200.69a31.78,31.78,0,0,0-31.75,31.74V492h-43.4a10,10,0,1,0,0,20H386.46a10,10,0,1,0,0-20h-43.4V480.23a31.78,31.78,0,0,0-31.75-31.74H289.64V407.63H428.2a31.33,31.33,0,0,0,31.3-31.29V365h16a10,10,0,0,0,9.84-11.77h0L466,245.87c0-.13,0-.26-.07-.39l-9.6-53.37a10,10,0,0,0-9.84-8.23H327.15M242.36,407.63h27.28v40.86H242.36Zm68.95,60.86a11.76,11.76,0,0,1,11.75,11.74V492H188.94V480.23a11.76,11.76,0,0,1,11.75-11.74Zm35.94-177.18H266V257.6H342.6Zm-12.07-87.43,4.65,33.72H266V203.88Zm-31.26-20H208.06M137.11,345H48.46l6-33.72h87.26Zm7.43-53.72H58.11l6-33.71h85ZM152,237.6H67.76l6-33.72h82.82ZM246,345H157.3L162,311.31h84Zm0-53.72H164.73l4.66-33.71H246Zm0-53.71H172.16l4.66-33.72H246ZM266,345V311.31h84L354.67,345Zm89.38-141.15h82.79l6.06,33.72H360Zm7.42,53.72h85l6.06,33.71H367.44ZM374.86,345l-4.66-33.72h87.28L463.54,345Z" transform="translate(-26.5 0)"></path><path class="cls-1" d="M327.15,183.88a79.15,79.15,0,1,0-142.31,0M256,90.16a59.07,59.07,0,0,1,47.93,93.72H208.06A59.09,59.09,0,0,1,256,90.16Z" transform="translate(-26.5 0)"></path></svg>