<svg xmlns="http://www.w3.org/2000/svg" xmlns:xlink="http://www.w3.org/1999/xlink" x="0px" y="0px" viewBox="0 0 512 512" style="enable-background:new 0 0 512 512;" xml:space="preserve"> <style type="text/css"> .st0{fill:none;} </style> <g id="Capa_2"> </g> <g id="Capa_1"> <g> <g> <path d="M443.3,189.2c-12.1,0-17.2-2.2-26.8,5.9L186.1,388.3c-9.5,8.2-16.2,16-12.4,23.1c2.7,6.4,5.6,12.2,19.1,12.2h244 c18.3,0,19.8,1.6,19.8-14.2v-200C456.5,197.8,456.5,189.1,443.3,189.2z M435.7,402.6H196.6l239.1-197.2V402.6z"></path> </g> </g> <g> <g> <path d="M379.2,188.3l-225.8,188c-3.6,3-4.1,8.3-1.2,11.9c3,3.6,8.3,4.1,11.9,1.2l225.7-188c3.6-3,4.1-8.3,1.2-11.9 C388,185.8,382.7,185.3,379.2,188.3z"></path> </g> </g> <g> <g> <path d="M341,183.6L131.3,355.6c-3.6,3-4.1,8.3-1.2,11.9c3,3.6,8.3,4.1,11.9,1.2l209.7-171.9c3.6-3,4.1-8.3,1.2-11.9 C349.9,181.2,344.6,180.7,341,183.6z"></path> </g> </g> <g> <g> <path d="M292.2,182.7L108.7,336.1c-3.6,3-4.1,8.3-1.2,11.9s8.3,4.1,11.9,1.2L303,195.8c3.6-3,4.1-8.3,1.2-11.9 S295.9,179.8,292.2,182.7z"></path> </g> </g> <g> <g> <path d="M251.9,178.4L83.5,315.2c-3.9,3.1-4.4,8.8-1.3,12.7c3.1,3.9,8.8,4.4,12.6,1.3l170.4-139.8c3.9-3.1,2.4-5.8-0.7-9.7 C261.4,175.8,255.7,175.3,251.9,178.4z"></path> </g> </g> <g> <g> <path d="M188.2,405.9l-98.1-88.4C86.3,315,81,316,78.4,320s-1.5,9.1,2.4,11.7l98.1,88.4c3.9,2.5,9.1,1.5,11.7-2.4 C193.2,413.8,192.1,408.6,188.2,405.9z"></path> </g> </g> <path d="M98.4,119.4c4.3-3.5,4.9-9.8,1.5-14.1L84.8,86.8c-3.5-4.3-9.8-4.9-14.1-1.5c-4.3,3.5-4.9,9.8-1.5,14.1l15.1,18.6 C87.8,122.2,94.1,122.9,98.4,119.4z"></path> <path d="M261.6,122.7c3.5,4.3,9.8,4.9,14.1,1.5l18.6-15.1c4.3-3.5,4.9-9.8,1.5-14.1c-3.5-4.3-9.8-4.9-14.1-1.5l-18.6,15.1 C258.8,112.1,258.1,118.4,261.6,122.7z"></path> <path d="M63,300.8l18.6-15.1c4.3-3.5,4.9-9.8,1.5-14.1s-9.8-4.9-14.1-1.5l-18.6,15.1c-4.3,3.5-4.9,9.8-1.5,14.1 S58.7,304.2,63,300.8z"></path> <path d="M185,92.2c2-1.6,3.4-4,3.6-6.7l2.5-23.8c0.6-5.5-3.4-10.4-8.9-11c-5.5-0.6-10.4,3.4-11,8.9l-2.5,23.8 c-0.6,5.5,3.4,10.4,8.9,11C180.5,94.7,183.1,93.8,185,92.2L185,92.2z"></path> <path d="M51,200.2c2.7,0.3,5.3-0.6,7.3-2.2c2-1.6,3.4-4,3.6-6.7c0.6-5.5-3.4-10.4-8.9-11l-23.8-2.5c-5.5-0.6-10.4,3.4-11,8.9 c-0.6,5.5,3.4,10.4,8.9,11L51,200.2z"></path> <path d="M243.2,188.8c-12.9-23.8-12.5-36.1-12.9-36.5c-27-34.2-77.4-39-111.3-11.5c-33.9,27.5-39.1,77.4-11.6,111.3 c7.6,9.4,17.2,16.8,28,21.8 M131.6,156.3c25.3-20.6,62.6-16.7,83.2,8.6c7.9,9.7,12.4,21.6,13.1,34l-74.4,60.4 c-11.9-3.2-22.7-10.1-30.5-19.8C102.4,214.1,106.2,176.8,131.6,156.3z"></path> <path d="M443.3,200.6c-21.3,0-38.7-17.3-38.7-38.7c0-21.3,17.3-38.7,38.7-38.7s38.7,17.3,38.7,38.7 C482,183.2,464.7,200.6,443.3,200.6z M443.3,136.8c-13.9,0-25.1,11.3-25.1,25.1c0,13.9,11.3,25.1,25.1,25.1s25.1-11.3,25.1-25.1 C468.5,148,457.2,136.8,443.3,136.8z"></path> <path class="st0" d="M248.5,130.8c-0.1,0-0.1,0-0.2,0C248.6,130.8,248.6,130.8,248.5,130.8z"></path> <path class="st0" d="M404.7,161.9c0-9.7,3.6-18.6,9.6-25.4l-110,5l-0.8,35.5l109.2,8.4C407.7,178.8,404.7,170.7,404.7,161.9z"></path> <circle class="st0" cx="443.3" cy="161.9" r="31.9"></circle> <path d="M248.4,130.8c0,0,0.1,0,0.2,0C248.3,130.7,247.9,130.7,248.4,130.8z"></path> <path d="M444,123.3c0,0-2.7-0.1-4.3,0l-188,7.4c-0.3,0-2.6,0.1-3.2,0.1c0.1,0,0.1,0-0.2,0c-14.9,0-27,12.6-27,28s12.1,28,27,28 c1.8,0,3.7-0.2,5.4-0.6l184.5,14.2c0.9,0.1,1.8,0.1,2.7,0c0.8,0,1.6,0.1,2.4,0.1c21.3,0,38.7-17.3,38.7-38.7 C482,140.8,465,123.6,444,123.3z M303.5,177c0,0-52.9-2.4-55.1-2.4c-8.7,0-15.8-7.1-15.8-15.8s7.1-15.8,15.8-15.8l55.9-1.5l0,0 l110-5c-6,6.8-9.6,15.7-9.6,25.4c0,8.8,3,16.9,8,23.5L303.5,177L303.5,177z M443.3,193.8c-17.6,0-31.9-14.3-31.9-31.9 s14.3-31.9,31.9-31.9s31.9,14.3,31.9,31.9S461,193.8,443.3,193.8z"></path> </g> </svg>