<svg xmlns="http://www.w3.org/2000/svg" xmlns:xlink="http://www.w3.org/1999/xlink" id="Capa_1" x="0px" y="0px" viewBox="0 0 181 198.9" style="enable-background:new 0 0 181 198.9;" xml:space="preserve"> <style type="text/css"> .st0{fill:none;stroke:#F9B233;stroke-width:2;stroke-miterlimit:10;} </style> <g> <path class="st0" d="M130.5,164.4L91,170.8l-62.7-36.2V62.3v-22l-12,6.6C11.8,49.5,9,54.3,9,59.6v77.8c0,5.2,2.8,10.1,7.3,12.7 l67.3,38.9c4.5,2.6,10.1,2.6,14.7,0l46.3-26.7L130.5,164.4z"></path> <path class="st0" d="M165.7,46.9L98.3,8c-4.5-2.6-10.1-2.6-14.7,0L39.3,33.6L91,26.1l62.7,36.2v72.4V157l12-6.9 c4.5-2.6,7.3-7.5,7.3-12.7V59.6C173,54.3,170.2,49.5,165.7,46.9z"></path> </g> </svg>